<?xml version="1.0" encoding="UTF-8"?>
<svg width="18px" height="18px" viewBox="0 0 18 18" version="1.1" xmlns="http://www.w3.org/2000/svg" xmlns:xlink="http://www.w3.org/1999/xlink">
    <!-- Generator: Sketch 51.2 (57519) - http://www.bohemiancoding.com/sketch -->
    <title></title>
    <desc>Created with Sketch.</desc>
    <defs></defs>
    <g id="Page-1" stroke="none" stroke-width="1" fill="none" fill-rule="evenodd">
        <g id="pc-16" fill="#2E4258" fill-rule="nonzero">
            <rect id="Rectangle-path" transform="translate(5.020242, 4.324897) rotate(-28.000000) translate(-5.020242, -4.324897) " x="0.0202416236" y="3.82489667" width="10" height="1"></rect>
            <rect id="Rectangle-path" transform="translate(13.149474, 12.788832) rotate(-18.000000) translate(-13.149474, -12.788832) " x="8.64947375" y="12.2888316" width="9" height="1"></rect>
            <rect id="Rectangle-path" transform="translate(13.483384, 6.681028) rotate(-133.000000) translate(-13.483384, -6.681028) " x="7.48338446" y="6.18102804" width="12" height="1"></rect>
            <rect id="Rectangle-path" transform="translate(4.729121, 11.457667) rotate(-152.000000) translate(-4.729121, -11.457667) " x="-0.27087861" y="10.957667" width="10" height="1"></rect>
            <rect id="Rectangle-path" transform="translate(0.500000, 9.000000) scale(-1, 1) rotate(90.000000) translate(-0.500000, -9.000000) " x="-8.5" y="8.5" width="18" height="1"></rect>
            <rect id="Rectangle-path" transform="translate(17.500000, 9.000000) scale(-1, 1) rotate(90.000000) translate(-17.500000, -9.000000) " x="8.5" y="8.5" width="18" height="1"></rect>
            <rect id="Rectangle-path" transform="translate(9.500000, 9.000000) scale(-1, 1) rotate(90.000000) translate(-9.500000, -9.000000) " x="0.5" y="8.5" width="18" height="1"></rect>
        </g>
    </g>
</svg>